<svg width="28" height="28" viewBox="0 0 28 28" fill="none" xmlns="http://www.w3.org/2000/svg">
<g filter="url(#filter0_d)">
<path d="M13.1947 5.03556L2.99224 22.7062C2.91108 22.8476 2.86847 23.0079 2.86865 23.171C2.86884 23.3341 2.91182 23.4943 2.99331 23.6355C3.07479 23.7768 3.19193 23.8942 3.333 23.9761C3.47408 24.0579 3.63416 24.1012 3.79724 24.1018H24.2022C24.3653 24.1012 24.5254 24.0579 24.6665 23.9761C24.8076 23.8942 24.9247 23.7768 25.0062 23.6355C25.0877 23.4943 25.1306 23.3341 25.1308 23.171C25.131 23.0079 25.0884 22.8476 25.0072 22.7062L14.8047 5.03556C14.7227 4.89485 14.6052 4.7781 14.4639 4.69696C14.3227 4.61582 14.1626 4.57312 13.9997 4.57312C13.8369 4.57312 13.6768 4.61582 13.5356 4.69696C13.3943 4.7781 13.2768 4.89485 13.1947 5.03556Z" fill="white"/>
<path d="M12.6874 20.1251C12.6874 19.8655 12.7644 19.6117 12.9086 19.3959C13.0528 19.18 13.2578 19.0118 13.4976 18.9125C13.7375 18.8131 14.0014 18.7871 14.256 18.8378C14.5106 18.8884 14.7444 19.0134 14.928 19.197C15.1116 19.3805 15.2366 19.6144 15.2872 19.869C15.3378 20.1236 15.3119 20.3875 15.2125 20.6273C15.1132 20.8672 14.9449 21.0721 14.7291 21.2164C14.5133 21.3606 14.2595 21.4376 13.9999 21.4376C13.8256 21.445 13.6516 21.4161 13.489 21.3528C13.3264 21.2895 13.1787 21.193 13.0553 21.0696C12.9319 20.9463 12.8355 20.7986 12.7722 20.636C12.7089 20.4734 12.68 20.2994 12.6874 20.1251ZM13.1643 18.0863L12.8318 11.5238H15.133L14.8137 18.0863H13.1643Z" fill="#353535"/>
</g>
<defs>
<filter id="filter0_d" x="-2" y="-1" width="32" height="32" filterUnits="userSpaceOnUse" color-interpolation-filters="sRGB">
<feFlood flood-opacity="0" result="BackgroundImageFix"/>
<feColorMatrix in="SourceAlpha" type="matrix" values="0 0 0 0 0 0 0 0 0 0 0 0 0 0 0 0 0 0 127 0"/>
<feOffset dy="1"/>
<feGaussianBlur stdDeviation="1"/>
<feColorMatrix type="matrix" values="0 0 0 0 0 0 0 0 0 0 0 0 0 0 0 0 0 0 0.25 0"/>
<feBlend mode="normal" in2="BackgroundImageFix" result="effect1_dropShadow"/>
<feBlend mode="normal" in="SourceGraphic" in2="effect1_dropShadow" result="shape"/>
</filter>
</defs>
</svg>
