<svg width="29" height="28" viewBox="0 0 29 28" fill="none" xmlns="http://www.w3.org/2000/svg">
<g filter="url(#filter0_d)">
<path d="M22.589 11.5779H20.2792C20.0015 10.5044 19.4569 9.53894 18.7163 8.75662L19.9469 7.04622C20.1207 6.80486 20.0658 6.46832 19.8244 6.29479C19.5828 6.121 19.2468 6.17622 19.073 6.41731L17.9084 8.03602C16.9625 7.32242 15.8183 6.86139 14.571 6.7572V4.57792C14.571 4.28056 14.3299 4.03946 14.0325 4.03946C13.7351 4.03946 13.494 4.28056 13.494 4.57792V6.75701C12.2306 6.86181 11.0715 7.3332 10.1174 8.06333L8.93316 6.41731C8.75911 6.17595 8.42283 6.12021 8.18174 6.29479C7.94037 6.46832 7.88542 6.80486 8.05921 7.04622L9.31446 8.79089C8.58946 9.5672 8.0553 10.5198 7.78114 11.5779H5.41712C5.11976 11.5779 4.87866 11.819 4.87866 12.1164C4.87866 12.4137 5.11976 12.6548 5.41712 12.6548H7.59569C7.58096 12.8322 7.56844 13.0103 7.56844 13.1913V18.6247C7.74394 18.5951 7.92302 18.5761 8.1068 18.5761H19.953C20.1368 18.5761 20.316 18.5951 20.4915 18.6247V13.1913C20.4915 13.0103 20.479 12.8322 20.4643 12.6548H22.589C22.8864 12.6548 23.1275 12.4137 23.1275 12.1164C23.1275 11.819 22.8864 11.5779 22.589 11.5779ZM12.9556 10.501C12.0648 10.501 11.3402 11.2256 11.3402 12.1164C11.3402 12.4137 11.0991 12.6548 10.8017 12.6548C10.5044 12.6548 10.2633 12.4137 10.2633 12.1164C10.2633 10.6319 11.4711 9.42407 12.9556 9.42407C13.253 9.42407 13.494 9.66517 13.494 9.96253C13.494 10.2599 13.253 10.501 12.9556 10.501Z" fill="#40E0CF"/>
<path d="M19.9529 19.6529H8.10673C6.92214 19.6529 5.95288 20.6221 5.95288 21.8067C5.95288 22.9967 6.92214 23.9606 8.10673 23.9606H19.9529C21.1429 23.9606 22.1067 22.9967 22.1067 21.8067C22.1067 20.6221 21.1429 19.6529 19.9529 19.6529Z" fill="black"/>
</g>
<defs>
<filter id="filter0_d" x="-1.99707" y="-1" width="32" height="32" filterUnits="userSpaceOnUse" color-interpolation-filters="sRGB">
<feFlood flood-opacity="0" result="BackgroundImageFix"/>
<feColorMatrix in="SourceAlpha" type="matrix" values="0 0 0 0 0 0 0 0 0 0 0 0 0 0 0 0 0 0 127 0"/>
<feOffset dy="1"/>
<feGaussianBlur stdDeviation="1"/>
<feColorMatrix type="matrix" values="0 0 0 0 0 0 0 0 0 0 0 0 0 0 0 0 0 0 0.25 0"/>
<feBlend mode="normal" in2="BackgroundImageFix" result="effect1_dropShadow"/>
<feBlend mode="normal" in="SourceGraphic" in2="effect1_dropShadow" result="shape"/>
</filter>
</defs>
</svg>
