<svg width="29" height="30" viewBox="0 0 29 30" fill="none" xmlns="http://www.w3.org/2000/svg">
<g filter="url(#filter0_d)">
<path d="M14.0063 1.16264C8.86545 1.16264 4.67065 5.35744 4.67065 10.4983C4.67065 13.9594 6.86184 17.7854 8.95092 20.919C11.04 24.0526 13.1278 26.4309 13.1278 26.4309C13.2327 26.5503 13.3609 26.6471 13.5046 26.7152C13.6482 26.7833 13.8043 26.8214 13.9631 26.827C14.122 26.8327 14.2804 26.8058 14.4285 26.748C14.5766 26.6903 14.7113 26.6028 14.8244 26.4911C14.8244 26.4911 16.9399 24.3819 19.0444 21.3755C21.149 18.369 23.3333 14.452 23.3333 10.4983C23.3333 5.35744 19.1471 1.16264 14.0063 1.16264ZM14.0063 3.49655C17.8861 3.49655 20.9994 6.61846 20.9994 10.4983C20.9994 13.5446 19.1113 17.2137 17.1325 20.0406C15.5862 22.2496 14.6414 23.1541 14.0407 23.7869C13.4463 23.0821 12.4623 21.9876 10.8887 19.6272C8.89441 16.6358 7.00456 12.8705 7.00456 10.4983C7.00456 6.61846 10.1265 3.49655 14.0063 3.49655Z" fill="#00001D"/>
<path d="M14.0062 5.83045C11.4427 5.83045 9.33838 7.93476 9.33838 10.4983C9.33838 13.0618 11.4427 15.1661 14.0062 15.1661C16.5697 15.1661 18.6654 13.0618 18.6654 10.4983C18.6654 7.93476 16.5697 5.83045 14.0062 5.83045ZM14.0062 8.16436C15.3087 8.16436 16.3401 9.19579 16.3401 10.4983C16.3401 11.8007 15.3087 12.8322 14.0062 12.8322C12.7037 12.8322 11.6723 11.8007 11.6723 10.4983C11.6723 9.19579 12.7037 8.16436 14.0062 8.16436Z" fill="#40E0CF"/>
</g>
<defs>
<filter id="filter0_d" x="-1.99719" y="-1" width="32" height="32" filterUnits="userSpaceOnUse" color-interpolation-filters="sRGB">
<feFlood flood-opacity="0" result="BackgroundImageFix"/>
<feColorMatrix in="SourceAlpha" type="matrix" values="0 0 0 0 0 0 0 0 0 0 0 0 0 0 0 0 0 0 127 0"/>
<feOffset dy="1"/>
<feGaussianBlur stdDeviation="1"/>
<feColorMatrix type="matrix" values="0 0 0 0 0 0 0 0 0 0 0 0 0 0 0 0 0 0 0.25 0"/>
<feBlend mode="normal" in2="BackgroundImageFix" result="effect1_dropShadow"/>
<feBlend mode="normal" in="SourceGraphic" in2="effect1_dropShadow" result="shape"/>
</filter>
</defs>
</svg>
