<svg width="24" height="26" viewBox="0 0 24 26" fill="none" xmlns="http://www.w3.org/2000/svg">
<path d="M13.4002 3.19453V2.68047C13.4002 2.38516 13.6408 2.14453 13.9361 2.14453C14.2314 2.14453 14.472 1.90391 14.472 1.60859V0.739062C14.472 0.44375 14.2314 0.203125 13.9361 0.203125H10.0642C9.76892 0.203125 9.52829 0.44375 9.52829 0.739062V1.59766C9.52829 1.89297 9.76892 2.13359 10.0642 2.13359C10.3595 2.13359 10.6002 2.37422 10.6002 2.66953V3.18359C4.98923 3.88359 0.647042 8.66875 0.65798 14.4711C0.663448 20.7437 5.72751 25.7969 12.0002 25.7969C18.2674 25.7969 23.3424 20.7164 23.3424 14.4547C23.3424 8.66328 19.0056 3.88359 13.4002 3.19453ZM12.0002 23.4453C7.03454 23.4453 3.00954 19.4203 3.00954 14.4547C3.00954 9.48906 7.03454 5.46406 12.0002 5.46406C16.9658 5.46406 20.9908 9.48906 20.9908 14.4547C20.9908 19.4203 16.9658 23.4453 12.0002 23.4453Z" fill="white"/>
<path d="M12 8.59219C12.2133 8.59219 12.3828 8.42265 12.3828 8.20937V7.06641C12.3828 6.85312 12.2133 6.68359 12 6.68359C11.7867 6.68359 11.6172 6.85312 11.6172 7.06641V8.20937C11.6172 8.42265 11.7867 8.59219 12 8.59219Z" fill="white"/>
<path d="M16.4135 10.4242C16.5119 10.4242 16.6104 10.3859 16.6815 10.3148L17.4854 9.51092C17.633 9.36326 17.633 9.11716 17.4854 8.96951C17.3377 8.82185 17.0916 8.82185 16.944 8.96951L16.14 9.77342C15.9924 9.92107 15.9924 10.1672 16.14 10.3148C16.2166 10.3859 16.315 10.4242 16.4135 10.4242Z" fill="white"/>
<path d="M19.383 14.0719H18.24C18.0267 14.0719 17.8572 14.2414 17.8572 14.4547C17.8572 14.668 18.0267 14.8375 18.24 14.8375H19.383C19.5962 14.8375 19.7658 14.668 19.7658 14.4547C19.7658 14.2414 19.5908 14.0719 19.383 14.0719Z" fill="white"/>
<path d="M16.6815 18.5945C16.5338 18.4469 16.2877 18.4469 16.14 18.5945C15.9924 18.7422 15.9924 18.9883 16.14 19.1359L16.944 19.9398C17.0205 20.0164 17.119 20.0492 17.2119 20.0492C17.3049 20.0492 17.4088 20.0109 17.4799 19.9398C17.6276 19.7922 17.6276 19.5461 17.4799 19.3984L16.6815 18.5945Z" fill="white"/>
<path d="M12 20.3118C11.7867 20.3118 11.6172 20.4813 11.6172 20.6946V21.8375C11.6172 22.0508 11.7867 22.2204 12 22.2204C12.2133 22.2204 12.3828 22.0508 12.3828 21.8375V20.6946C12.3828 20.4813 12.2133 20.3118 12 20.3118Z" fill="white"/>
<path d="M7.3187 18.5945L6.51479 19.3984C6.36714 19.5461 6.36714 19.7922 6.51479 19.9398C6.59136 20.0164 6.68979 20.0492 6.78276 20.0492C6.87573 20.0492 6.97964 20.0109 7.05073 19.9398L7.85463 19.1359C8.00229 18.9883 8.00229 18.7422 7.85463 18.5945C7.70698 18.4469 7.46635 18.4469 7.3187 18.5945Z" fill="white"/>
<path d="M5.76015 14.0719H4.61719C4.40391 14.0719 4.23438 14.2414 4.23438 14.4547C4.23438 14.668 4.40391 14.8375 4.61719 14.8375H5.76015C5.97344 14.8375 6.14297 14.668 6.14297 14.4547C6.14297 14.2414 5.96797 14.0719 5.76015 14.0719Z" fill="white"/>
<path d="M7.31904 10.3094C7.3956 10.386 7.49404 10.4188 7.58701 10.4188C7.67998 10.4188 7.78388 10.3805 7.85498 10.304C8.00263 10.1563 8.00263 9.91021 7.85498 9.76255L7.05107 8.95864C6.90342 8.81099 6.65732 8.81099 6.50967 8.95864C6.36201 9.1063 6.36201 9.35239 6.50967 9.50005L7.31904 10.3094Z" fill="white"/>
<path d="M12.0003 11.5508C11.076 10.6266 9.58308 10.6266 8.66433 11.5508C7.9698 12.2454 7.80027 13.2625 8.15027 14.1157C8.20495 14.0883 8.25964 14.0719 8.32527 14.0719H10.4417C10.655 14.0719 10.8245 14.2415 10.8245 14.4547C10.8245 14.668 10.655 14.8375 10.4417 14.8375H8.62058C8.63698 14.854 8.65339 14.8704 8.6698 14.8868L12.0057 18.2227L15.3417 14.8868C16.2659 13.9625 16.2659 12.4696 15.3417 11.5508C14.4175 10.6266 12.9245 10.6266 12.0003 11.5508ZM12.1698 14.5258C12.1643 14.5532 12.1589 14.575 12.1479 14.5969C12.137 14.6188 12.126 14.6407 12.1151 14.6625C12.0987 14.6844 12.0878 14.7008 12.0659 14.7227C12.0495 14.7391 12.0276 14.7555 12.0057 14.7719C11.9839 14.7883 11.962 14.7993 11.9401 14.8047C11.9182 14.8157 11.8909 14.8211 11.869 14.8266C11.8471 14.8321 11.8198 14.8321 11.7925 14.8321C11.7706 14.8321 11.7432 14.8321 11.7159 14.8266C11.6885 14.8211 11.6667 14.8157 11.6448 14.8047C11.6229 14.7938 11.601 14.7829 11.5792 14.7719C11.5573 14.7555 11.5409 14.7446 11.519 14.7227C11.5026 14.7063 11.4862 14.6844 11.4698 14.6625C11.4534 14.6407 11.4425 14.6188 11.437 14.5969C11.426 14.575 11.4206 14.5477 11.4151 14.5258C11.4096 14.504 11.4096 14.4766 11.4096 14.4493C11.4096 14.4219 11.4151 14.4 11.4151 14.3727C11.4206 14.3454 11.426 14.3235 11.437 14.3016C11.4479 14.2797 11.4589 14.2579 11.4698 14.236C11.4862 14.2141 11.4971 14.1977 11.519 14.1758C11.5354 14.1594 11.5573 14.143 11.5792 14.1266C11.601 14.1102 11.6229 14.0993 11.6448 14.0883C11.6667 14.0774 11.694 14.0719 11.7159 14.0665C11.7651 14.0555 11.8143 14.0555 11.8635 14.0665C11.8909 14.0719 11.9128 14.0774 11.9346 14.0883C11.9565 14.0993 11.9784 14.1102 12.0003 14.1266C12.0221 14.143 12.0385 14.154 12.0604 14.1758C12.0768 14.1922 12.0932 14.2141 12.1096 14.236C12.126 14.2579 12.137 14.2797 12.1425 14.3016C12.1534 14.3235 12.1589 14.3508 12.1643 14.3727C12.1698 14.3946 12.1698 14.4219 12.1698 14.4493C12.1753 14.4766 12.1753 14.504 12.1698 14.5258Z" fill="#40E0CF"/>
</svg>
