<svg width="21" height="22" viewBox="0 0 21 22" fill="none" xmlns="http://www.w3.org/2000/svg">
<path d="M10.9562 21.0187C5.44375 21.0187 0.9375 16.5124 0.9375 10.9999C0.9375 5.48745 5.44375 0.981201 10.9562 0.981201C16.4687 0.981201 20.975 5.48745 20.975 10.9999C21.0187 16.5124 16.5125 21.0187 10.9562 21.0187ZM10.9562 2.0312C6.0125 2.0312 2.03125 6.0562 2.03125 10.9562C2.03125 15.8562 6.05625 19.8812 10.9562 19.8812C15.8562 19.8812 19.8812 15.8562 19.8812 10.9562C19.8812 6.0562 15.9 2.0312 10.9562 2.0312Z" fill="#40E0CF"/>
<path d="M14.1062 16.1186L10.3875 12.3999V5.61865H11.5687V11.9186L14.9374 15.2874L14.1062 16.1186Z" fill="#40E0CF"/>
</svg>
