<svg width="20" height="20" viewBox="0 0 20 20" fill="none" xmlns="http://www.w3.org/2000/svg">
<path d="M18.5861 7.57789H16.2762C15.9985 6.50442 15.454 5.53891 14.7134 4.75659L15.944 3.04619C16.1178 2.80483 16.0628 2.46829 15.8215 2.29476C15.5798 2.12097 15.2438 2.17618 15.07 2.41728L13.9054 4.03599C12.9596 3.32239 11.8154 2.86136 10.568 2.75717V0.57789C10.568 0.280527 10.3269 0.0394287 10.0296 0.0394287C9.73222 0.0394287 9.49112 0.280527 9.49112 0.57789V2.75698C8.22768 2.86178 7.06857 3.33317 6.11449 4.0633L4.93023 2.41728C4.75618 2.17592 4.4199 2.12018 4.17881 2.29476C3.93744 2.46829 3.88249 2.80483 4.05628 3.04619L5.31153 4.79086C4.58653 5.56717 4.05237 6.5198 3.77821 7.57789H1.41419C1.11683 7.57789 0.875732 7.81899 0.875732 8.11635C0.875732 8.41371 1.11683 8.65481 1.41419 8.65481H3.59275C3.57803 8.83219 3.56551 9.01025 3.56551 9.1913V14.6247C3.74101 14.595 3.92009 14.576 4.10387 14.576H15.95C16.1339 14.576 16.313 14.595 16.4886 14.6247V9.1913C16.4886 9.01025 16.4761 8.83219 16.4614 8.65481H18.5861C18.8834 8.65481 19.1245 8.41371 19.1245 8.11635C19.1245 7.81899 18.8834 7.57789 18.5861 7.57789ZM8.95266 6.50097C8.06188 6.50097 7.33727 7.22558 7.33727 8.11635C7.33727 8.41371 7.09617 8.65481 6.79881 8.65481C6.50145 8.65481 6.26035 8.41371 6.26035 8.11635C6.26035 6.6319 7.46821 5.42404 8.95266 5.42404C9.25002 5.42404 9.49112 5.66514 9.49112 5.96251C9.49112 6.25987 9.25002 6.50097 8.95266 6.50097Z" fill="#40E0CF"/>
<path d="M15.95 15.6528H4.1038C2.91921 15.6528 1.94995 16.6221 1.94995 17.8067C1.94995 18.9967 2.91921 19.9605 4.1038 19.9605H15.95C17.14 19.9605 18.1038 18.9967 18.1038 17.8067C18.1038 16.6221 17.14 15.6528 15.95 15.6528Z" fill="black"/>
</svg>
