<svg width="28" height="30" viewBox="0 0 28 30" fill="none" xmlns="http://www.w3.org/2000/svg">
<g filter="url(#filter0_d)">
<path d="M14.0034 1.16266C8.86252 1.16266 4.66772 5.35745 4.66772 10.4983C4.66772 13.9594 6.85891 17.7854 8.94799 20.9191C11.0371 24.0527 13.1249 26.4309 13.1249 26.4309C13.2298 26.5503 13.358 26.6471 13.5016 26.7152C13.6453 26.7833 13.8013 26.8214 13.9602 26.827C14.1191 26.8327 14.2774 26.8058 14.4255 26.748C14.5737 26.6903 14.7084 26.6029 14.8215 26.4911C14.8215 26.4911 16.937 24.382 19.0415 21.3755C21.146 18.369 23.3304 14.452 23.3304 10.4983C23.3304 5.35745 19.1442 1.16266 14.0034 1.16266ZM14.0034 3.49657C17.8832 3.49657 20.9965 6.61848 20.9965 10.4983C20.9965 13.5446 19.1084 17.2138 17.1296 20.0406C15.5833 22.2496 14.6385 23.1541 14.0378 23.7869C13.4434 23.0821 12.4593 21.9876 10.8857 19.6272C8.89148 16.6359 7.00163 12.8705 7.00163 10.4983C7.00163 6.61848 10.1235 3.49657 14.0034 3.49657Z" fill="#00001D"/>
<path d="M14.0035 5.83044C11.44 5.83044 9.33569 7.93475 9.33569 10.4983C9.33569 13.0618 11.44 15.1661 14.0035 15.1661C16.567 15.1661 18.6627 13.0618 18.6627 10.4983C18.6627 7.93475 16.567 5.83044 14.0035 5.83044ZM14.0035 8.16435C15.306 8.16435 16.3374 9.19578 16.3374 10.4983C16.3374 11.8007 15.306 12.8322 14.0035 12.8322C12.701 12.8322 11.6696 11.8007 11.6696 10.4983C11.6696 9.19578 12.701 8.16435 14.0035 8.16435Z" fill="#40E0CF"/>
</g>
<defs>
<filter id="filter0_d" x="-2" y="-1" width="32" height="32" filterUnits="userSpaceOnUse" color-interpolation-filters="sRGB">
<feFlood flood-opacity="0" result="BackgroundImageFix"/>
<feColorMatrix in="SourceAlpha" type="matrix" values="0 0 0 0 0 0 0 0 0 0 0 0 0 0 0 0 0 0 127 0"/>
<feOffset dy="1"/>
<feGaussianBlur stdDeviation="1"/>
<feColorMatrix type="matrix" values="0 0 0 0 0 0 0 0 0 0 0 0 0 0 0 0 0 0 0.25 0"/>
<feBlend mode="normal" in2="BackgroundImageFix" result="effect1_dropShadow"/>
<feBlend mode="normal" in="SourceGraphic" in2="effect1_dropShadow" result="shape"/>
</filter>
</defs>
</svg>
