<svg width="16" height="17" viewBox="0 0 16 17" fill="none" xmlns="http://www.w3.org/2000/svg">
<path d="M4.39028 8.34534C5.07034 9.89952 6.55366 11.1995 7.99197 11.1995C9.74809 11.1995 11.0238 9.91471 11.7039 8.36109C15.6588 10.4097 15.1605 15.5943 15.1605 15.5943C15.1605 16.3041 14.6013 16.4071 13.9443 16.4071H7.99253H2.04972C1.39159 16.4071 0.830781 16.3036 0.830781 15.5943C0.830218 15.5943 0.435906 10.3945 4.39028 8.34534Z" fill="white"/>
<path d="M7.99267 10.3568C6.0121 10.3568 4.43767 7.52181 4.43767 5.17956C4.43767 2.83675 6.04304 0.937744 8.02361 0.937744C10.0042 0.937744 11.6101 2.83675 11.6101 5.17956C11.6101 7.52237 9.97379 10.3568 7.99267 10.3568Z" fill="white"/>
</svg>
