<svg width="22" height="22" viewBox="0 0 22 22" fill="none" xmlns="http://www.w3.org/2000/svg">
<path d="M22 17.375C22 17.6562 21.9479 18.0234 21.8438 18.4766C21.7396 18.9297 21.6302 19.2865 21.5156 19.5469C21.2969 20.0677 20.6615 20.6198 19.6094 21.2031C18.6302 21.7344 17.6615 22 16.7031 22C16.4219 22 16.1484 21.9818 15.8828 21.9453C15.6172 21.9089 15.3177 21.8437 14.9844 21.75C14.651 21.6562 14.4036 21.5807 14.2422 21.5234C14.0807 21.4661 13.7917 21.3594 13.375 21.2031C12.9583 21.0469 12.7031 20.9531 12.6094 20.9219C11.5885 20.5573 10.6771 20.125 9.875 19.625C8.54167 18.8021 7.16406 17.6797 5.74219 16.2578C4.32031 14.8359 3.19792 13.4583 2.375 12.125C1.875 11.3229 1.44271 10.4115 1.07812 9.39062C1.04688 9.29687 0.953125 9.04167 0.796875 8.625C0.640625 8.20833 0.533854 7.91927 0.476562 7.75781C0.419271 7.59635 0.34375 7.34896 0.25 7.01562C0.15625 6.68229 0.0911458 6.38281 0.0546875 6.11719C0.0182292 5.85156 0 5.57812 0 5.29687C0 4.33854 0.265625 3.36979 0.796875 2.39062C1.38021 1.33854 1.93229 0.703125 2.45312 0.484375C2.71354 0.369792 3.07031 0.260417 3.52344 0.15625C3.97656 0.0520833 4.34375 0 4.625 0C4.77083 0 4.88021 0.015625 4.95312 0.046875C5.14062 0.109375 5.41667 0.505208 5.78125 1.23437C5.89583 1.43229 6.05208 1.71354 6.25 2.07812C6.44792 2.44271 6.63021 2.77344 6.79688 3.07031C6.96354 3.36719 7.125 3.64583 7.28125 3.90625C7.3125 3.94792 7.40365 4.07812 7.55469 4.29687C7.70573 4.51562 7.81771 4.70052 7.89062 4.85156C7.96354 5.0026 8 5.15104 8 5.29687C8 5.50521 7.85156 5.76562 7.55469 6.07812C7.25781 6.39062 6.9349 6.67708 6.58594 6.9375C6.23698 7.19792 5.91406 7.47396 5.61719 7.76562C5.32031 8.05729 5.17188 8.29687 5.17188 8.48437C5.17188 8.57812 5.19792 8.69531 5.25 8.83594C5.30208 8.97656 5.34635 9.08333 5.38281 9.15625C5.41927 9.22917 5.49219 9.35417 5.60156 9.53125C5.71094 9.70833 5.77083 9.80729 5.78125 9.82812C6.57292 11.2552 7.47917 12.4792 8.5 13.5C9.52083 14.5208 10.7448 15.4271 12.1719 16.2187C12.1927 16.2292 12.2917 16.2891 12.4688 16.3984C12.6458 16.5078 12.7708 16.5807 12.8438 16.6172C12.9167 16.6536 13.0234 16.6979 13.1641 16.75C13.3047 16.8021 13.4219 16.8281 13.5156 16.8281C13.7031 16.8281 13.9427 16.6797 14.2344 16.3828C14.526 16.0859 14.8021 15.763 15.0625 15.4141C15.3229 15.0651 15.6094 14.7422 15.9219 14.4453C16.2344 14.1484 16.4948 14 16.7031 14C16.849 14 16.9974 14.0365 17.1484 14.1094C17.2995 14.1823 17.4844 14.2943 17.7031 14.4453C17.9219 14.5964 18.0521 14.6875 18.0938 14.7187C18.3542 14.875 18.6328 15.0365 18.9297 15.2031C19.2266 15.3698 19.5573 15.5521 19.9219 15.75C20.2865 15.9479 20.5677 16.1042 20.7656 16.2187C21.4948 16.5833 21.8906 16.8594 21.9531 17.0469C21.9844 17.1198 22 17.2292 22 17.375Z" fill="#40E0CF"/>
</svg>
